# Initial Flag Mesh for Unity
v -0.000000 0.000000 -0.200000
v -0.000000 0.000000 -0.178947
v -0.000000 0.000000 -0.157895
v -0.000000 0.000000 -0.136842
v -0.000000 0.000000 -0.115789
v -0.000000 0.000000 -0.094737
v -0.000000 0.000000 -0.073684
v -0.000000 0.000000 -0.052632
v -0.000000 0.000000 -0.031579
v -0.000000 0.000000 -0.010526
v -0.000000 0.000000 0.010526
v -0.000000 0.000000 0.031579
v -0.000000 0.000000 0.052632
v -0.000000 0.000000 0.073684
v -0.000000 0.000000 0.094737
v -0.000000 0.000000 0.115789
v -0.000000 0.000000 0.136842
v -0.000000 0.000000 0.157895
v -0.000000 0.000000 0.178947
v -0.000000 0.000000 0.200000
v 0.020690 0.000000 -0.200000
v 0.020690 0.000000 -0.178947
v 0.020690 0.000000 -0.157895
v 0.020690 0.000000 -0.136842
v 0.020690 0.000000 -0.115789
v 0.020690 0.000000 -0.094737
v 0.020690 0.000000 -0.073684
v 0.020690 0.000000 -0.052632
v 0.020690 0.000000 -0.031579
v 0.020690 0.000000 -0.010526
v 0.020690 0.000000 0.010526
v 0.020690 0.000000 0.031579
v 0.020690 0.000000 0.052632
v 0.020690 0.000000 0.073684
v 0.020690 0.000000 0.094737
v 0.020690 0.000000 0.115789
v 0.020690 0.000000 0.136842
v 0.020690 0.000000 0.157895
v 0.020690 0.000000 0.178947
v 0.020690 0.000000 0.200000
v 0.041379 0.000000 -0.200000
v 0.041379 0.000000 -0.178947
v 0.041379 0.000000 -0.157895
v 0.041379 0.000000 -0.136842
v 0.041379 0.000000 -0.115789
v 0.041379 0.000000 -0.094737
v 0.041379 0.000000 -0.073684
v 0.041379 0.000000 -0.052632
v 0.041379 0.000000 -0.031579
v 0.041379 0.000000 -0.010526
v 0.041379 0.000000 0.010526
v 0.041379 0.000000 0.031579
v 0.041379 0.000000 0.052632
v 0.041379 0.000000 0.073684
v 0.041379 0.000000 0.094737
v 0.041379 0.000000 0.115789
v 0.041379 0.000000 0.136842
v 0.041379 0.000000 0.157895
v 0.041379 0.000000 0.178947
v 0.041379 0.000000 0.200000
v 0.062069 0.000000 -0.200000
v 0.062069 0.000000 -0.178947
v 0.062069 0.000000 -0.157895
v 0.062069 0.000000 -0.136842
v 0.062069 0.000000 -0.115789
v 0.062069 0.000000 -0.094737
v 0.062069 0.000000 -0.073684
v 0.062069 0.000000 -0.052632
v 0.062069 0.000000 -0.031579
v 0.062069 0.000000 -0.010526
v 0.062069 0.000000 0.010526
v 0.062069 0.000000 0.031579
v 0.062069 0.000000 0.052632
v 0.062069 0.000000 0.073684
v 0.062069 0.000000 0.094737
v 0.062069 0.000000 0.115789
v 0.062069 0.000000 0.136842
v 0.062069 0.000000 0.157895
v 0.062069 0.000000 0.178947
v 0.062069 0.000000 0.200000
v 0.082759 0.000000 -0.200000
v 0.082759 0.000000 -0.178947
v 0.082759 0.000000 -0.157895
v 0.082759 0.000000 -0.136842
v 0.082759 0.000000 -0.115789
v 0.082759 0.000000 -0.094737
v 0.082759 0.000000 -0.073684
v 0.082759 0.000000 -0.052632
v 0.082759 0.000000 -0.031579
v 0.082759 0.000000 -0.010526
v 0.082759 0.000000 0.010526
v 0.082759 0.000000 0.031579
v 0.082759 0.000000 0.052632
v 0.082759 0.000000 0.073684
v 0.082759 0.000000 0.094737
v 0.082759 0.000000 0.115789
v 0.082759 0.000000 0.136842
v 0.082759 0.000000 0.157895
v 0.082759 0.000000 0.178947
v 0.082759 0.000000 0.200000
v 0.103448 0.000000 -0.200000
v 0.103448 0.000000 -0.178947
v 0.103448 0.000000 -0.157895
v 0.103448 0.000000 -0.136842
v 0.103448 0.000000 -0.115789
v 0.103448 0.000000 -0.094737
v 0.103448 0.000000 -0.073684
v 0.103448 0.000000 -0.052632
v 0.103448 0.000000 -0.031579
v 0.103448 0.000000 -0.010526
v 0.103448 0.000000 0.010526
v 0.103448 0.000000 0.031579
v 0.103448 0.000000 0.052632
v 0.103448 0.000000 0.073684
v 0.103448 0.000000 0.094737
v 0.103448 0.000000 0.115789
v 0.103448 0.000000 0.136842
v 0.103448 0.000000 0.157895
v 0.103448 0.000000 0.178947
v 0.103448 0.000000 0.200000
v 0.124138 0.000000 -0.200000
v 0.124138 0.000000 -0.178947
v 0.124138 0.000000 -0.157895
v 0.124138 0.000000 -0.136842
v 0.124138 0.000000 -0.115789
v 0.124138 0.000000 -0.094737
v 0.124138 0.000000 -0.073684
v 0.124138 0.000000 -0.052632
v 0.124138 0.000000 -0.031579
v 0.124138 0.000000 -0.010526
v 0.124138 0.000000 0.010526
v 0.124138 0.000000 0.031579
v 0.124138 0.000000 0.052632
v 0.124138 0.000000 0.073684
v 0.124138 0.000000 0.094737
v 0.124138 0.000000 0.115789
v 0.124138 0.000000 0.136842
v 0.124138 0.000000 0.157895
v 0.124138 0.000000 0.178947
v 0.124138 0.000000 0.200000
v 0.144828 0.000000 -0.200000
v 0.144828 0.000000 -0.178947
v 0.144828 0.000000 -0.157895
v 0.144828 0.000000 -0.136842
v 0.144828 0.000000 -0.115789
v 0.144828 0.000000 -0.094737
v 0.144828 0.000000 -0.073684
v 0.144828 0.000000 -0.052632
v 0.144828 0.000000 -0.031579
v 0.144828 0.000000 -0.010526
v 0.144828 0.000000 0.010526
v 0.144828 0.000000 0.031579
v 0.144828 0.000000 0.052632
v 0.144828 0.000000 0.073684
v 0.144828 0.000000 0.094737
v 0.144828 0.000000 0.115789
v 0.144828 0.000000 0.136842
v 0.144828 0.000000 0.157895
v 0.144828 0.000000 0.178947
v 0.144828 0.000000 0.200000
v 0.165517 0.000000 -0.200000
v 0.165517 0.000000 -0.178947
v 0.165517 0.000000 -0.157895
v 0.165517 0.000000 -0.136842
v 0.165517 0.000000 -0.115789
v 0.165517 0.000000 -0.094737
v 0.165517 0.000000 -0.073684
v 0.165517 0.000000 -0.052632
v 0.165517 0.000000 -0.031579
v 0.165517 0.000000 -0.010526
v 0.165517 0.000000 0.010526
v 0.165517 0.000000 0.031579
v 0.165517 0.000000 0.052632
v 0.165517 0.000000 0.073684
v 0.165517 0.000000 0.094737
v 0.165517 0.000000 0.115789
v 0.165517 0.000000 0.136842
v 0.165517 0.000000 0.157895
v 0.165517 0.000000 0.178947
v 0.165517 0.000000 0.200000
v 0.186207 0.000000 -0.200000
v 0.186207 0.000000 -0.178947
v 0.186207 0.000000 -0.157895
v 0.186207 0.000000 -0.136842
v 0.186207 0.000000 -0.115789
v 0.186207 0.000000 -0.094737
v 0.186207 0.000000 -0.073684
v 0.186207 0.000000 -0.052632
v 0.186207 0.000000 -0.031579
v 0.186207 0.000000 -0.010526
v 0.186207 0.000000 0.010526
v 0.186207 0.000000 0.031579
v 0.186207 0.000000 0.052632
v 0.186207 0.000000 0.073684
v 0.186207 0.000000 0.094737
v 0.186207 0.000000 0.115789
v 0.186207 0.000000 0.136842
v 0.186207 0.000000 0.157895
v 0.186207 0.000000 0.178947
v 0.186207 0.000000 0.200000
v 0.206897 0.000000 -0.200000
v 0.206897 0.000000 -0.178947
v 0.206897 0.000000 -0.157895
v 0.206897 0.000000 -0.136842
v 0.206897 0.000000 -0.115789
v 0.206897 0.000000 -0.094737
v 0.206897 0.000000 -0.073684
v 0.206897 0.000000 -0.052632
v 0.206897 0.000000 -0.031579
v 0.206897 0.000000 -0.010526
v 0.206897 0.000000 0.010526
v 0.206897 0.000000 0.031579
v 0.206897 0.000000 0.052632
v 0.206897 0.000000 0.073684
v 0.206897 0.000000 0.094737
v 0.206897 0.000000 0.115789
v 0.206897 0.000000 0.136842
v 0.206897 0.000000 0.157895
v 0.206897 0.000000 0.178947
v 0.206897 0.000000 0.200000
v 0.227586 0.000000 -0.200000
v 0.227586 0.000000 -0.178947
v 0.227586 0.000000 -0.157895
v 0.227586 0.000000 -0.136842
v 0.227586 0.000000 -0.115789
v 0.227586 0.000000 -0.094737
v 0.227586 0.000000 -0.073684
v 0.227586 0.000000 -0.052632
v 0.227586 0.000000 -0.031579
v 0.227586 0.000000 -0.010526
v 0.227586 0.000000 0.010526
v 0.227586 0.000000 0.031579
v 0.227586 0.000000 0.052632
v 0.227586 0.000000 0.073684
v 0.227586 0.000000 0.094737
v 0.227586 0.000000 0.115789
v 0.227586 0.000000 0.136842
v 0.227586 0.000000 0.157895
v 0.227586 0.000000 0.178947
v 0.227586 0.000000 0.200000
v 0.248276 0.000000 -0.200000
v 0.248276 0.000000 -0.178947
v 0.248276 0.000000 -0.157895
v 0.248276 0.000000 -0.136842
v 0.248276 0.000000 -0.115789
v 0.248276 0.000000 -0.094737
v 0.248276 0.000000 -0.073684
v 0.248276 0.000000 -0.052632
v 0.248276 0.000000 -0.031579
v 0.248276 0.000000 -0.010526
v 0.248276 0.000000 0.010526
v 0.248276 0.000000 0.031579
v 0.248276 0.000000 0.052632
v 0.248276 0.000000 0.073684
v 0.248276 0.000000 0.094737
v 0.248276 0.000000 0.115789
v 0.248276 0.000000 0.136842
v 0.248276 0.000000 0.157895
v 0.248276 0.000000 0.178947
v 0.248276 0.000000 0.200000
v 0.268966 0.000000 -0.200000
v 0.268966 0.000000 -0.178947
v 0.268966 0.000000 -0.157895
v 0.268966 0.000000 -0.136842
v 0.268966 0.000000 -0.115789
v 0.268966 0.000000 -0.094737
v 0.268966 0.000000 -0.073684
v 0.268966 0.000000 -0.052632
v 0.268966 0.000000 -0.031579
v 0.268966 0.000000 -0.010526
v 0.268966 0.000000 0.010526
v 0.268966 0.000000 0.031579
v 0.268966 0.000000 0.052632
v 0.268966 0.000000 0.073684
v 0.268966 0.000000 0.094737
v 0.268966 0.000000 0.115789
v 0.268966 0.000000 0.136842
v 0.268966 0.000000 0.157895
v 0.268966 0.000000 0.178947
v 0.268966 0.000000 0.200000
v 0.289655 0.000000 -0.200000
v 0.289655 0.000000 -0.178947
v 0.289655 0.000000 -0.157895
v 0.289655 0.000000 -0.136842
v 0.289655 0.000000 -0.115789
v 0.289655 0.000000 -0.094737
v 0.289655 0.000000 -0.073684
v 0.289655 0.000000 -0.052632
v 0.289655 0.000000 -0.031579
v 0.289655 0.000000 -0.010526
v 0.289655 0.000000 0.010526
v 0.289655 0.000000 0.031579
v 0.289655 0.000000 0.052632
v 0.289655 0.000000 0.073684
v 0.289655 0.000000 0.094737
v 0.289655 0.000000 0.115789
v 0.289655 0.000000 0.136842
v 0.289655 0.000000 0.157895
v 0.289655 0.000000 0.178947
v 0.289655 0.000000 0.200000
v 0.310345 0.000000 -0.200000
v 0.310345 0.000000 -0.178947
v 0.310345 0.000000 -0.157895
v 0.310345 0.000000 -0.136842
v 0.310345 0.000000 -0.115789
v 0.310345 0.000000 -0.094737
v 0.310345 0.000000 -0.073684
v 0.310345 0.000000 -0.052632
v 0.310345 0.000000 -0.031579
v 0.310345 0.000000 -0.010526
v 0.310345 0.000000 0.010526
v 0.310345 0.000000 0.031579
v 0.310345 0.000000 0.052632
v 0.310345 0.000000 0.073684
v 0.310345 0.000000 0.094737
v 0.310345 0.000000 0.115789
v 0.310345 0.000000 0.136842
v 0.310345 0.000000 0.157895
v 0.310345 0.000000 0.178947
v 0.310345 0.000000 0.200000
v 0.331034 0.000000 -0.200000
v 0.331034 0.000000 -0.178947
v 0.331034 0.000000 -0.157895
v 0.331034 0.000000 -0.136842
v 0.331034 0.000000 -0.115789
v 0.331034 0.000000 -0.094737
v 0.331034 0.000000 -0.073684
v 0.331034 0.000000 -0.052632
v 0.331034 0.000000 -0.031579
v 0.331034 0.000000 -0.010526
v 0.331034 0.000000 0.010526
v 0.331034 0.000000 0.031579
v 0.331034 0.000000 0.052632
v 0.331034 0.000000 0.073684
v 0.331034 0.000000 0.094737
v 0.331034 0.000000 0.115789
v 0.331034 0.000000 0.136842
v 0.331034 0.000000 0.157895
v 0.331034 0.000000 0.178947
v 0.331034 0.000000 0.200000
v 0.351724 0.000000 -0.200000
v 0.351724 0.000000 -0.178947
v 0.351724 0.000000 -0.157895
v 0.351724 0.000000 -0.136842
v 0.351724 0.000000 -0.115789
v 0.351724 0.000000 -0.094737
v 0.351724 0.000000 -0.073684
v 0.351724 0.000000 -0.052632
v 0.351724 0.000000 -0.031579
v 0.351724 0.000000 -0.010526
v 0.351724 0.000000 0.010526
v 0.351724 0.000000 0.031579
v 0.351724 0.000000 0.052632
v 0.351724 0.000000 0.073684
v 0.351724 0.000000 0.094737
v 0.351724 0.000000 0.115789
v 0.351724 0.000000 0.136842
v 0.351724 0.000000 0.157895
v 0.351724 0.000000 0.178947
v 0.351724 0.000000 0.200000
v 0.372414 0.000000 -0.200000
v 0.372414 0.000000 -0.178947
v 0.372414 0.000000 -0.157895
v 0.372414 0.000000 -0.136842
v 0.372414 0.000000 -0.115789
v 0.372414 0.000000 -0.094737
v 0.372414 0.000000 -0.073684
v 0.372414 0.000000 -0.052632
v 0.372414 0.000000 -0.031579
v 0.372414 0.000000 -0.010526
v 0.372414 0.000000 0.010526
v 0.372414 0.000000 0.031579
v 0.372414 0.000000 0.052632
v 0.372414 0.000000 0.073684
v 0.372414 0.000000 0.094737
v 0.372414 0.000000 0.115789
v 0.372414 0.000000 0.136842
v 0.372414 0.000000 0.157895
v 0.372414 0.000000 0.178947
v 0.372414 0.000000 0.200000
v 0.393103 0.000000 -0.200000
v 0.393103 0.000000 -0.178947
v 0.393103 0.000000 -0.157895
v 0.393103 0.000000 -0.136842
v 0.393103 0.000000 -0.115789
v 0.393103 0.000000 -0.094737
v 0.393103 0.000000 -0.073684
v 0.393103 0.000000 -0.052632
v 0.393103 0.000000 -0.031579
v 0.393103 0.000000 -0.010526
v 0.393103 0.000000 0.010526
v 0.393103 0.000000 0.031579
v 0.393103 0.000000 0.052632
v 0.393103 0.000000 0.073684
v 0.393103 0.000000 0.094737
v 0.393103 0.000000 0.115789
v 0.393103 0.000000 0.136842
v 0.393103 0.000000 0.157895
v 0.393103 0.000000 0.178947
v 0.393103 0.000000 0.200000
v 0.413793 0.000000 -0.200000
v 0.413793 0.000000 -0.178947
v 0.413793 0.000000 -0.157895
v 0.413793 0.000000 -0.136842
v 0.413793 0.000000 -0.115789
v 0.413793 0.000000 -0.094737
v 0.413793 0.000000 -0.073684
v 0.413793 0.000000 -0.052632
v 0.413793 0.000000 -0.031579
v 0.413793 0.000000 -0.010526
v 0.413793 0.000000 0.010526
v 0.413793 0.000000 0.031579
v 0.413793 0.000000 0.052632
v 0.413793 0.000000 0.073684
v 0.413793 0.000000 0.094737
v 0.413793 0.000000 0.115789
v 0.413793 0.000000 0.136842
v 0.413793 0.000000 0.157895
v 0.413793 0.000000 0.178947
v 0.413793 0.000000 0.200000
v 0.434483 0.000000 -0.200000
v 0.434483 0.000000 -0.178947
v 0.434483 0.000000 -0.157895
v 0.434483 0.000000 -0.136842
v 0.434483 0.000000 -0.115789
v 0.434483 0.000000 -0.094737
v 0.434483 0.000000 -0.073684
v 0.434483 0.000000 -0.052632
v 0.434483 0.000000 -0.031579
v 0.434483 0.000000 -0.010526
v 0.434483 0.000000 0.010526
v 0.434483 0.000000 0.031579
v 0.434483 0.000000 0.052632
v 0.434483 0.000000 0.073684
v 0.434483 0.000000 0.094737
v 0.434483 0.000000 0.115789
v 0.434483 0.000000 0.136842
v 0.434483 0.000000 0.157895
v 0.434483 0.000000 0.178947
v 0.434483 0.000000 0.200000
v 0.455172 0.000000 -0.200000
v 0.455172 0.000000 -0.178947
v 0.455172 0.000000 -0.157895
v 0.455172 0.000000 -0.136842
v 0.455172 0.000000 -0.115789
v 0.455172 0.000000 -0.094737
v 0.455172 0.000000 -0.073684
v 0.455172 0.000000 -0.052632
v 0.455172 0.000000 -0.031579
v 0.455172 0.000000 -0.010526
v 0.455172 0.000000 0.010526
v 0.455172 0.000000 0.031579
v 0.455172 0.000000 0.052632
v 0.455172 0.000000 0.073684
v 0.455172 0.000000 0.094737
v 0.455172 0.000000 0.115789
v 0.455172 0.000000 0.136842
v 0.455172 0.000000 0.157895
v 0.455172 0.000000 0.178947
v 0.455172 0.000000 0.200000
v 0.475862 0.000000 -0.200000
v 0.475862 0.000000 -0.178947
v 0.475862 0.000000 -0.157895
v 0.475862 0.000000 -0.136842
v 0.475862 0.000000 -0.115789
v 0.475862 0.000000 -0.094737
v 0.475862 0.000000 -0.073684
v 0.475862 0.000000 -0.052632
v 0.475862 0.000000 -0.031579
v 0.475862 0.000000 -0.010526
v 0.475862 0.000000 0.010526
v 0.475862 0.000000 0.031579
v 0.475862 0.000000 0.052632
v 0.475862 0.000000 0.073684
v 0.475862 0.000000 0.094737
v 0.475862 0.000000 0.115789
v 0.475862 0.000000 0.136842
v 0.475862 0.000000 0.157895
v 0.475862 0.000000 0.178947
v 0.475862 0.000000 0.200000
v 0.496552 0.000000 -0.200000
v 0.496552 0.000000 -0.178947
v 0.496552 0.000000 -0.157895
v 0.496552 0.000000 -0.136842
v 0.496552 0.000000 -0.115789
v 0.496552 0.000000 -0.094737
v 0.496552 0.000000 -0.073684
v 0.496552 0.000000 -0.052632
v 0.496552 0.000000 -0.031579
v 0.496552 0.000000 -0.010526
v 0.496552 0.000000 0.010526
v 0.496552 0.000000 0.031579
v 0.496552 0.000000 0.052632
v 0.496552 0.000000 0.073684
v 0.496552 0.000000 0.094737
v 0.496552 0.000000 0.115789
v 0.496552 0.000000 0.136842
v 0.496552 0.000000 0.157895
v 0.496552 0.000000 0.178947
v 0.496552 0.000000 0.200000
v 0.517241 0.000000 -0.200000
v 0.517241 0.000000 -0.178947
v 0.517241 0.000000 -0.157895
v 0.517241 0.000000 -0.136842
v 0.517241 0.000000 -0.115789
v 0.517241 0.000000 -0.094737
v 0.517241 0.000000 -0.073684
v 0.517241 0.000000 -0.052632
v 0.517241 0.000000 -0.031579
v 0.517241 0.000000 -0.010526
v 0.517241 0.000000 0.010526
v 0.517241 0.000000 0.031579
v 0.517241 0.000000 0.052632
v 0.517241 0.000000 0.073684
v 0.517241 0.000000 0.094737
v 0.517241 0.000000 0.115789
v 0.517241 0.000000 0.136842
v 0.517241 0.000000 0.157895
v 0.517241 0.000000 0.178947
v 0.517241 0.000000 0.200000
v 0.537931 0.000000 -0.200000
v 0.537931 0.000000 -0.178947
v 0.537931 0.000000 -0.157895
v 0.537931 0.000000 -0.136842
v 0.537931 0.000000 -0.115789
v 0.537931 0.000000 -0.094737
v 0.537931 0.000000 -0.073684
v 0.537931 0.000000 -0.052632
v 0.537931 0.000000 -0.031579
v 0.537931 0.000000 -0.010526
v 0.537931 0.000000 0.010526
v 0.537931 0.000000 0.031579
v 0.537931 0.000000 0.052632
v 0.537931 0.000000 0.073684
v 0.537931 0.000000 0.094737
v 0.537931 0.000000 0.115789
v 0.537931 0.000000 0.136842
v 0.537931 0.000000 0.157895
v 0.537931 0.000000 0.178947
v 0.537931 0.000000 0.200000
v 0.558621 0.000000 -0.200000
v 0.558621 0.000000 -0.178947
v 0.558621 0.000000 -0.157895
v 0.558621 0.000000 -0.136842
v 0.558621 0.000000 -0.115789
v 0.558621 0.000000 -0.094737
v 0.558621 0.000000 -0.073684
v 0.558621 0.000000 -0.052632
v 0.558621 0.000000 -0.031579
v 0.558621 0.000000 -0.010526
v 0.558621 0.000000 0.010526
v 0.558621 0.000000 0.031579
v 0.558621 0.000000 0.052632
v 0.558621 0.000000 0.073684
v 0.558621 0.000000 0.094737
v 0.558621 0.000000 0.115789
v 0.558621 0.000000 0.136842
v 0.558621 0.000000 0.157895
v 0.558621 0.000000 0.178947
v 0.558621 0.000000 0.200000
v 0.579310 0.000000 -0.200000
v 0.579310 0.000000 -0.178947
v 0.579310 0.000000 -0.157895
v 0.579310 0.000000 -0.136842
v 0.579310 0.000000 -0.115789
v 0.579310 0.000000 -0.094737
v 0.579310 0.000000 -0.073684
v 0.579310 0.000000 -0.052632
v 0.579310 0.000000 -0.031579
v 0.579310 0.000000 -0.010526
v 0.579310 0.000000 0.010526
v 0.579310 0.000000 0.031579
v 0.579310 0.000000 0.052632
v 0.579310 0.000000 0.073684
v 0.579310 0.000000 0.094737
v 0.579310 0.000000 0.115789
v 0.579310 0.000000 0.136842
v 0.579310 0.000000 0.157895
v 0.579310 0.000000 0.178947
v 0.579310 0.000000 0.200000
v 0.600000 0.000000 -0.200000
v 0.600000 0.000000 -0.178947
v 0.600000 0.000000 -0.157895
v 0.600000 0.000000 -0.136842
v 0.600000 0.000000 -0.115789
v 0.600000 0.000000 -0.094737
v 0.600000 0.000000 -0.073684
v 0.600000 0.000000 -0.052632
v 0.600000 0.000000 -0.031579
v 0.600000 0.000000 -0.010526
v 0.600000 0.000000 0.010526
v 0.600000 0.000000 0.031579
v 0.600000 0.000000 0.052632
v 0.600000 0.000000 0.073684
v 0.600000 0.000000 0.094737
v 0.600000 0.000000 0.115789
v 0.600000 0.000000 0.136842
v 0.600000 0.000000 0.157895
v 0.600000 0.000000 0.178947
v 0.600000 0.000000 0.200000
f 1 2 21
f 21 2 22
f 21 22 41
f 41 22 42
f 41 42 61
f 61 42 62
f 61 62 81
f 81 62 82
f 81 82 101
f 101 82 102
f 101 102 121
f 121 102 122
f 121 122 141
f 141 122 142
f 141 142 161
f 161 142 162
f 161 162 181
f 181 162 182
f 181 182 201
f 201 182 202
f 201 202 221
f 221 202 222
f 221 222 241
f 241 222 242
f 241 242 261
f 261 242 262
f 261 262 281
f 281 262 282
f 281 282 301
f 301 282 302
f 301 302 321
f 321 302 322
f 321 322 341
f 341 322 342
f 341 342 361
f 361 342 362
f 361 362 381
f 381 362 382
f 381 382 401
f 401 382 402
f 401 402 421
f 421 402 422
f 421 422 441
f 441 422 442
f 441 442 461
f 461 442 462
f 461 462 481
f 481 462 482
f 481 482 501
f 501 482 502
f 501 502 521
f 521 502 522
f 521 522 541
f 541 522 542
f 541 542 561
f 561 542 562
f 561 562 581
f 581 562 582
f 2 3 22
f 22 3 23
f 22 23 42
f 42 23 43
f 42 43 62
f 62 43 63
f 62 63 82
f 82 63 83
f 82 83 102
f 102 83 103
f 102 103 122
f 122 103 123
f 122 123 142
f 142 123 143
f 142 143 162
f 162 143 163
f 162 163 182
f 182 163 183
f 182 183 202
f 202 183 203
f 202 203 222
f 222 203 223
f 222 223 242
f 242 223 243
f 242 243 262
f 262 243 263
f 262 263 282
f 282 263 283
f 282 283 302
f 302 283 303
f 302 303 322
f 322 303 323
f 322 323 342
f 342 323 343
f 342 343 362
f 362 343 363
f 362 363 382
f 382 363 383
f 382 383 402
f 402 383 403
f 402 403 422
f 422 403 423
f 422 423 442
f 442 423 443
f 442 443 462
f 462 443 463
f 462 463 482
f 482 463 483
f 482 483 502
f 502 483 503
f 502 503 522
f 522 503 523
f 522 523 542
f 542 523 543
f 542 543 562
f 562 543 563
f 562 563 582
f 582 563 583
f 3 4 23
f 23 4 24
f 23 24 43
f 43 24 44
f 43 44 63
f 63 44 64
f 63 64 83
f 83 64 84
f 83 84 103
f 103 84 104
f 103 104 123
f 123 104 124
f 123 124 143
f 143 124 144
f 143 144 163
f 163 144 164
f 163 164 183
f 183 164 184
f 183 184 203
f 203 184 204
f 203 204 223
f 223 204 224
f 223 224 243
f 243 224 244
f 243 244 263
f 263 244 264
f 263 264 283
f 283 264 284
f 283 284 303
f 303 284 304
f 303 304 323
f 323 304 324
f 323 324 343
f 343 324 344
f 343 344 363
f 363 344 364
f 363 364 383
f 383 364 384
f 383 384 403
f 403 384 404
f 403 404 423
f 423 404 424
f 423 424 443
f 443 424 444
f 443 444 463
f 463 444 464
f 463 464 483
f 483 464 484
f 483 484 503
f 503 484 504
f 503 504 523
f 523 504 524
f 523 524 543
f 543 524 544
f 543 544 563
f 563 544 564
f 563 564 583
f 583 564 584
f 4 5 24
f 24 5 25
f 24 25 44
f 44 25 45
f 44 45 64
f 64 45 65
f 64 65 84
f 84 65 85
f 84 85 104
f 104 85 105
f 104 105 124
f 124 105 125
f 124 125 144
f 144 125 145
f 144 145 164
f 164 145 165
f 164 165 184
f 184 165 185
f 184 185 204
f 204 185 205
f 204 205 224
f 224 205 225
f 224 225 244
f 244 225 245
f 244 245 264
f 264 245 265
f 264 265 284
f 284 265 285
f 284 285 304
f 304 285 305
f 304 305 324
f 324 305 325
f 324 325 344
f 344 325 345
f 344 345 364
f 364 345 365
f 364 365 384
f 384 365 385
f 384 385 404
f 404 385 405
f 404 405 424
f 424 405 425
f 424 425 444
f 444 425 445
f 444 445 464
f 464 445 465
f 464 465 484
f 484 465 485
f 484 485 504
f 504 485 505
f 504 505 524
f 524 505 525
f 524 525 544
f 544 525 545
f 544 545 564
f 564 545 565
f 564 565 584
f 584 565 585
f 5 6 25
f 25 6 26
f 25 26 45
f 45 26 46
f 45 46 65
f 65 46 66
f 65 66 85
f 85 66 86
f 85 86 105
f 105 86 106
f 105 106 125
f 125 106 126
f 125 126 145
f 145 126 146
f 145 146 165
f 165 146 166
f 165 166 185
f 185 166 186
f 185 186 205
f 205 186 206
f 205 206 225
f 225 206 226
f 225 226 245
f 245 226 246
f 245 246 265
f 265 246 266
f 265 266 285
f 285 266 286
f 285 286 305
f 305 286 306
f 305 306 325
f 325 306 326
f 325 326 345
f 345 326 346
f 345 346 365
f 365 346 366
f 365 366 385
f 385 366 386
f 385 386 405
f 405 386 406
f 405 406 425
f 425 406 426
f 425 426 445
f 445 426 446
f 445 446 465
f 465 446 466
f 465 466 485
f 485 466 486
f 485 486 505
f 505 486 506
f 505 506 525
f 525 506 526
f 525 526 545
f 545 526 546
f 545 546 565
f 565 546 566
f 565 566 585
f 585 566 586
f 6 7 26
f 26 7 27
f 26 27 46
f 46 27 47
f 46 47 66
f 66 47 67
f 66 67 86
f 86 67 87
f 86 87 106
f 106 87 107
f 106 107 126
f 126 107 127
f 126 127 146
f 146 127 147
f 146 147 166
f 166 147 167
f 166 167 186
f 186 167 187
f 186 187 206
f 206 187 207
f 206 207 226
f 226 207 227
f 226 227 246
f 246 227 247
f 246 247 266
f 266 247 267
f 266 267 286
f 286 267 287
f 286 287 306
f 306 287 307
f 306 307 326
f 326 307 327
f 326 327 346
f 346 327 347
f 346 347 366
f 366 347 367
f 366 367 386
f 386 367 387
f 386 387 406
f 406 387 407
f 406 407 426
f 426 407 427
f 426 427 446
f 446 427 447
f 446 447 466
f 466 447 467
f 466 467 486
f 486 467 487
f 486 487 506
f 506 487 507
f 506 507 526
f 526 507 527
f 526 527 546
f 546 527 547
f 546 547 566
f 566 547 567
f 566 567 586
f 586 567 587
f 7 8 27
f 27 8 28
f 27 28 47
f 47 28 48
f 47 48 67
f 67 48 68
f 67 68 87
f 87 68 88
f 87 88 107
f 107 88 108
f 107 108 127
f 127 108 128
f 127 128 147
f 147 128 148
f 147 148 167
f 167 148 168
f 167 168 187
f 187 168 188
f 187 188 207
f 207 188 208
f 207 208 227
f 227 208 228
f 227 228 247
f 247 228 248
f 247 248 267
f 267 248 268
f 267 268 287
f 287 268 288
f 287 288 307
f 307 288 308
f 307 308 327
f 327 308 328
f 327 328 347
f 347 328 348
f 347 348 367
f 367 348 368
f 367 368 387
f 387 368 388
f 387 388 407
f 407 388 408
f 407 408 427
f 427 408 428
f 427 428 447
f 447 428 448
f 447 448 467
f 467 448 468
f 467 468 487
f 487 468 488
f 487 488 507
f 507 488 508
f 507 508 527
f 527 508 528
f 527 528 547
f 547 528 548
f 547 548 567
f 567 548 568
f 567 568 587
f 587 568 588
f 8 9 28
f 28 9 29
f 28 29 48
f 48 29 49
f 48 49 68
f 68 49 69
f 68 69 88
f 88 69 89
f 88 89 108
f 108 89 109
f 108 109 128
f 128 109 129
f 128 129 148
f 148 129 149
f 148 149 168
f 168 149 169
f 168 169 188
f 188 169 189
f 188 189 208
f 208 189 209
f 208 209 228
f 228 209 229
f 228 229 248
f 248 229 249
f 248 249 268
f 268 249 269
f 268 269 288
f 288 269 289
f 288 289 308
f 308 289 309
f 308 309 328
f 328 309 329
f 328 329 348
f 348 329 349
f 348 349 368
f 368 349 369
f 368 369 388
f 388 369 389
f 388 389 408
f 408 389 409
f 408 409 428
f 428 409 429
f 428 429 448
f 448 429 449
f 448 449 468
f 468 449 469
f 468 469 488
f 488 469 489
f 488 489 508
f 508 489 509
f 508 509 528
f 528 509 529
f 528 529 548
f 548 529 549
f 548 549 568
f 568 549 569
f 568 569 588
f 588 569 589
f 9 10 29
f 29 10 30
f 29 30 49
f 49 30 50
f 49 50 69
f 69 50 70
f 69 70 89
f 89 70 90
f 89 90 109
f 109 90 110
f 109 110 129
f 129 110 130
f 129 130 149
f 149 130 150
f 149 150 169
f 169 150 170
f 169 170 189
f 189 170 190
f 189 190 209
f 209 190 210
f 209 210 229
f 229 210 230
f 229 230 249
f 249 230 250
f 249 250 269
f 269 250 270
f 269 270 289
f 289 270 290
f 289 290 309
f 309 290 310
f 309 310 329
f 329 310 330
f 329 330 349
f 349 330 350
f 349 350 369
f 369 350 370
f 369 370 389
f 389 370 390
f 389 390 409
f 409 390 410
f 409 410 429
f 429 410 430
f 429 430 449
f 449 430 450
f 449 450 469
f 469 450 470
f 469 470 489
f 489 470 490
f 489 490 509
f 509 490 510
f 509 510 529
f 529 510 530
f 529 530 549
f 549 530 550
f 549 550 569
f 569 550 570
f 569 570 589
f 589 570 590
f 10 11 30
f 30 11 31
f 30 31 50
f 50 31 51
f 50 51 70
f 70 51 71
f 70 71 90
f 90 71 91
f 90 91 110
f 110 91 111
f 110 111 130
f 130 111 131
f 130 131 150
f 150 131 151
f 150 151 170
f 170 151 171
f 170 171 190
f 190 171 191
f 190 191 210
f 210 191 211
f 210 211 230
f 230 211 231
f 230 231 250
f 250 231 251
f 250 251 270
f 270 251 271
f 270 271 290
f 290 271 291
f 290 291 310
f 310 291 311
f 310 311 330
f 330 311 331
f 330 331 350
f 350 331 351
f 350 351 370
f 370 351 371
f 370 371 390
f 390 371 391
f 390 391 410
f 410 391 411
f 410 411 430
f 430 411 431
f 430 431 450
f 450 431 451
f 450 451 470
f 470 451 471
f 470 471 490
f 490 471 491
f 490 491 510
f 510 491 511
f 510 511 530
f 530 511 531
f 530 531 550
f 550 531 551
f 550 551 570
f 570 551 571
f 570 571 590
f 590 571 591
f 11 12 31
f 31 12 32
f 31 32 51
f 51 32 52
f 51 52 71
f 71 52 72
f 71 72 91
f 91 72 92
f 91 92 111
f 111 92 112
f 111 112 131
f 131 112 132
f 131 132 151
f 151 132 152
f 151 152 171
f 171 152 172
f 171 172 191
f 191 172 192
f 191 192 211
f 211 192 212
f 211 212 231
f 231 212 232
f 231 232 251
f 251 232 252
f 251 252 271
f 271 252 272
f 271 272 291
f 291 272 292
f 291 292 311
f 311 292 312
f 311 312 331
f 331 312 332
f 331 332 351
f 351 332 352
f 351 352 371
f 371 352 372
f 371 372 391
f 391 372 392
f 391 392 411
f 411 392 412
f 411 412 431
f 431 412 432
f 431 432 451
f 451 432 452
f 451 452 471
f 471 452 472
f 471 472 491
f 491 472 492
f 491 492 511
f 511 492 512
f 511 512 531
f 531 512 532
f 531 532 551
f 551 532 552
f 551 552 571
f 571 552 572
f 571 572 591
f 591 572 592
f 12 13 32
f 32 13 33
f 32 33 52
f 52 33 53
f 52 53 72
f 72 53 73
f 72 73 92
f 92 73 93
f 92 93 112
f 112 93 113
f 112 113 132
f 132 113 133
f 132 133 152
f 152 133 153
f 152 153 172
f 172 153 173
f 172 173 192
f 192 173 193
f 192 193 212
f 212 193 213
f 212 213 232
f 232 213 233
f 232 233 252
f 252 233 253
f 252 253 272
f 272 253 273
f 272 273 292
f 292 273 293
f 292 293 312
f 312 293 313
f 312 313 332
f 332 313 333
f 332 333 352
f 352 333 353
f 352 353 372
f 372 353 373
f 372 373 392
f 392 373 393
f 392 393 412
f 412 393 413
f 412 413 432
f 432 413 433
f 432 433 452
f 452 433 453
f 452 453 472
f 472 453 473
f 472 473 492
f 492 473 493
f 492 493 512
f 512 493 513
f 512 513 532
f 532 513 533
f 532 533 552
f 552 533 553
f 552 553 572
f 572 553 573
f 572 573 592
f 592 573 593
f 13 14 33
f 33 14 34
f 33 34 53
f 53 34 54
f 53 54 73
f 73 54 74
f 73 74 93
f 93 74 94
f 93 94 113
f 113 94 114
f 113 114 133
f 133 114 134
f 133 134 153
f 153 134 154
f 153 154 173
f 173 154 174
f 173 174 193
f 193 174 194
f 193 194 213
f 213 194 214
f 213 214 233
f 233 214 234
f 233 234 253
f 253 234 254
f 253 254 273
f 273 254 274
f 273 274 293
f 293 274 294
f 293 294 313
f 313 294 314
f 313 314 333
f 333 314 334
f 333 334 353
f 353 334 354
f 353 354 373
f 373 354 374
f 373 374 393
f 393 374 394
f 393 394 413
f 413 394 414
f 413 414 433
f 433 414 434
f 433 434 453
f 453 434 454
f 453 454 473
f 473 454 474
f 473 474 493
f 493 474 494
f 493 494 513
f 513 494 514
f 513 514 533
f 533 514 534
f 533 534 553
f 553 534 554
f 553 554 573
f 573 554 574
f 573 574 593
f 593 574 594
f 14 15 34
f 34 15 35
f 34 35 54
f 54 35 55
f 54 55 74
f 74 55 75
f 74 75 94
f 94 75 95
f 94 95 114
f 114 95 115
f 114 115 134
f 134 115 135
f 134 135 154
f 154 135 155
f 154 155 174
f 174 155 175
f 174 175 194
f 194 175 195
f 194 195 214
f 214 195 215
f 214 215 234
f 234 215 235
f 234 235 254
f 254 235 255
f 254 255 274
f 274 255 275
f 274 275 294
f 294 275 295
f 294 295 314
f 314 295 315
f 314 315 334
f 334 315 335
f 334 335 354
f 354 335 355
f 354 355 374
f 374 355 375
f 374 375 394
f 394 375 395
f 394 395 414
f 414 395 415
f 414 415 434
f 434 415 435
f 434 435 454
f 454 435 455
f 454 455 474
f 474 455 475
f 474 475 494
f 494 475 495
f 494 495 514
f 514 495 515
f 514 515 534
f 534 515 535
f 534 535 554
f 554 535 555
f 554 555 574
f 574 555 575
f 574 575 594
f 594 575 595
f 15 16 35
f 35 16 36
f 35 36 55
f 55 36 56
f 55 56 75
f 75 56 76
f 75 76 95
f 95 76 96
f 95 96 115
f 115 96 116
f 115 116 135
f 135 116 136
f 135 136 155
f 155 136 156
f 155 156 175
f 175 156 176
f 175 176 195
f 195 176 196
f 195 196 215
f 215 196 216
f 215 216 235
f 235 216 236
f 235 236 255
f 255 236 256
f 255 256 275
f 275 256 276
f 275 276 295
f 295 276 296
f 295 296 315
f 315 296 316
f 315 316 335
f 335 316 336
f 335 336 355
f 355 336 356
f 355 356 375
f 375 356 376
f 375 376 395
f 395 376 396
f 395 396 415
f 415 396 416
f 415 416 435
f 435 416 436
f 435 436 455
f 455 436 456
f 455 456 475
f 475 456 476
f 475 476 495
f 495 476 496
f 495 496 515
f 515 496 516
f 515 516 535
f 535 516 536
f 535 536 555
f 555 536 556
f 555 556 575
f 575 556 576
f 575 576 595
f 595 576 596
f 16 17 36
f 36 17 37
f 36 37 56
f 56 37 57
f 56 57 76
f 76 57 77
f 76 77 96
f 96 77 97
f 96 97 116
f 116 97 117
f 116 117 136
f 136 117 137
f 136 137 156
f 156 137 157
f 156 157 176
f 176 157 177
f 176 177 196
f 196 177 197
f 196 197 216
f 216 197 217
f 216 217 236
f 236 217 237
f 236 237 256
f 256 237 257
f 256 257 276
f 276 257 277
f 276 277 296
f 296 277 297
f 296 297 316
f 316 297 317
f 316 317 336
f 336 317 337
f 336 337 356
f 356 337 357
f 356 357 376
f 376 357 377
f 376 377 396
f 396 377 397
f 396 397 416
f 416 397 417
f 416 417 436
f 436 417 437
f 436 437 456
f 456 437 457
f 456 457 476
f 476 457 477
f 476 477 496
f 496 477 497
f 496 497 516
f 516 497 517
f 516 517 536
f 536 517 537
f 536 537 556
f 556 537 557
f 556 557 576
f 576 557 577
f 576 577 596
f 596 577 597
f 17 18 37
f 37 18 38
f 37 38 57
f 57 38 58
f 57 58 77
f 77 58 78
f 77 78 97
f 97 78 98
f 97 98 117
f 117 98 118
f 117 118 137
f 137 118 138
f 137 138 157
f 157 138 158
f 157 158 177
f 177 158 178
f 177 178 197
f 197 178 198
f 197 198 217
f 217 198 218
f 217 218 237
f 237 218 238
f 237 238 257
f 257 238 258
f 257 258 277
f 277 258 278
f 277 278 297
f 297 278 298
f 297 298 317
f 317 298 318
f 317 318 337
f 337 318 338
f 337 338 357
f 357 338 358
f 357 358 377
f 377 358 378
f 377 378 397
f 397 378 398
f 397 398 417
f 417 398 418
f 417 418 437
f 437 418 438
f 437 438 457
f 457 438 458
f 457 458 477
f 477 458 478
f 477 478 497
f 497 478 498
f 497 498 517
f 517 498 518
f 517 518 537
f 537 518 538
f 537 538 557
f 557 538 558
f 557 558 577
f 577 558 578
f 577 578 597
f 597 578 598
f 18 19 38
f 38 19 39
f 38 39 58
f 58 39 59
f 58 59 78
f 78 59 79
f 78 79 98
f 98 79 99
f 98 99 118
f 118 99 119
f 118 119 138
f 138 119 139
f 138 139 158
f 158 139 159
f 158 159 178
f 178 159 179
f 178 179 198
f 198 179 199
f 198 199 218
f 218 199 219
f 218 219 238
f 238 219 239
f 238 239 258
f 258 239 259
f 258 259 278
f 278 259 279
f 278 279 298
f 298 279 299
f 298 299 318
f 318 299 319
f 318 319 338
f 338 319 339
f 338 339 358
f 358 339 359
f 358 359 378
f 378 359 379
f 378 379 398
f 398 379 399
f 398 399 418
f 418 399 419
f 418 419 438
f 438 419 439
f 438 439 458
f 458 439 459
f 458 459 478
f 478 459 479
f 478 479 498
f 498 479 499
f 498 499 518
f 518 499 519
f 518 519 538
f 538 519 539
f 538 539 558
f 558 539 559
f 558 559 578
f 578 559 579
f 578 579 598
f 598 579 599
f 19 20 39
f 39 20 40
f 39 40 59
f 59 40 60
f 59 60 79
f 79 60 80
f 79 80 99
f 99 80 100
f 99 100 119
f 119 100 120
f 119 120 139
f 139 120 140
f 139 140 159
f 159 140 160
f 159 160 179
f 179 160 180
f 179 180 199
f 199 180 200
f 199 200 219
f 219 200 220
f 219 220 239
f 239 220 240
f 239 240 259
f 259 240 260
f 259 260 279
f 279 260 280
f 279 280 299
f 299 280 300
f 299 300 319
f 319 300 320
f 319 320 339
f 339 320 340
f 339 340 359
f 359 340 360
f 359 360 379
f 379 360 380
f 379 380 399
f 399 380 400
f 399 400 419
f 419 400 420
f 419 420 439
f 439 420 440
f 439 440 459
f 459 440 460
f 459 460 479
f 479 460 480
f 479 480 499
f 499 480 500
f 499 500 519
f 519 500 520
f 519 520 539
f 539 520 540
f 539 540 559
f 559 540 560
f 559 560 579
f 579 560 580
f 579 580 599
f 599 580 600
