# Pole OBJ
# Tall cylindrical pole

# Base vertices (octagon)
v 0.087 0.0 0.05
v 0.087 4.0 0.05
v 0.05 0.0 0.087
v 0.05 4.0 0.087
v -0.05 0.0 0.087
v -0.05 4.0 0.087
v -0.087 0.0 0.05
v -0.087 4.0 0.05
v -0.087 0.0 -0.05
v -0.087 4.0 -0.05
v -0.05 0.0 -0.087
v -0.05 4.0 -0.087
v 0.05 0.0 -0.087
v 0.05 4.0 -0.087
v 0.087 0.0 -0.05
v 0.087 4.0 -0.05

# Side faces
f 1 3 2
f 2 3 4
f 3 5 4
f 4 5 6
f 5 7 6
f 6 7 8
f 7 9 8
f 8 9 10
f 9 11 10
f 10 11 12
f 11 13 12
f 12 13 14
f 13 15 14
f 14 15 16
f 15 1 16
f 16 1 2

# Bottom cap
f 1 15 13
f 1 13 11
f 1 11 9
f 1 9 7
f 1 7 5
f 1 5 3

# Top cap
f 2 4 6
f 2 6 8
f 2 8 10
f 2 10 12
f 2 12 14
f 2 14 16
