# Simple Tree OBJ
# Trunk and foliage

# Trunk vertices (octagonal cylinder)
v 0.173205 0.0 0.1
v 0.173205 2.0 0.1
v 0.1 0.0 0.173205
v 0.1 2.0 0.173205
v -0.1 0.0 0.173205
v -0.1 2.0 0.173205
v -0.173205 0.0 0.1
v -0.173205 2.0 0.1
v -0.173205 0.0 -0.1
v -0.173205 2.0 -0.1
v -0.1 0.0 -0.173205
v -0.1 2.0 -0.173205
v 0.1 0.0 -0.173205
v 0.1 2.0 -0.173205
v 0.173205 0.0 -0.1
v 0.173205 2.0 -0.1

# Foliage vertices (cone)
v 1.299 2.0 0.75
v 0.75 2.0 1.299
v -0.75 2.0 1.299
v -1.299 2.0 0.75
v -1.299 2.0 -0.75
v -0.75 2.0 -1.299
v 0.75 2.0 -1.299
v 1.299 2.0 -0.75
v 0.0 5.0 0.0

# Trunk faces
f 1 3 2
f 2 3 4
f 3 5 4
f 4 5 6
f 5 7 6
f 6 7 8
f 7 9 8
f 8 9 10
f 9 11 10
f 10 11 12
f 11 13 12
f 12 13 14
f 13 15 14
f 14 15 16
f 15 1 16
f 16 1 2

# Foliage faces
f 17 18 25
f 18 19 25
f 19 20 25
f 20 21 25
f 21 22 25
f 22 23 25
f 23 24 25
f 24 17 25
